<svg xmlns="http://www.w3.org/2000/svg" height="256" viewBox="0 0 256 256" width="256"><path d="M203.3 128c0 3.5-2.9 6-6.4 6H74.9l47.1 46c2.5 2.5 2.6 6.6 0.1 9.1 -1.3 1.3-2.9 2-4.6 2 -1.6 0-3.2-0.6-4.5-1.8l-58.5-56.7c-1.2-1.2-1.9-2.9-1.9-4.6s0.7-3.4 1.9-4.6l58.5-56.7c2.5-2.5 6.6-2.4 9.1 0.1 2.5 2.5 2.4 6.8-0.1 9.3L74.9 122h122C200.4 122 203.3 124.5 203.3 128zM256 128C256 57.4 198.6 0 128 0S0 57.4 0 128s57.4 128 128 128S256 198.6 256 128zM243.2 128c0 63.5-51.7 115.2-115.2 115.2S12.8 191.5 12.8 128 64.5 12.8 128 12.8 243.2 64.5 243.2 128z"/></svg>