<svg width="27" height="20" viewBox="0 0 27 20" fill="none" xmlns="http://www.w3.org/2000/svg">
<path d="M12.5627 6.65228C12.5627 7.68353 12.469 8.7851 12.2815 9.95697C12.0706 11.1523 11.7541 12.3242 11.3323 13.4726C10.887 14.6445 10.3245 15.746 9.64477 16.7773C8.94165 17.832 8.0979 18.7343 7.11352 19.4843L3.28149 16.8124C3.93774 16.0624 4.42993 15.3476 4.75805 14.6679C5.08618 13.9882 5.34399 13.3085 5.53149 12.6288C4.82837 12.5117 4.17212 12.2656 3.56274 11.8906C2.95337 11.539 2.42602 11.0937 1.98071 10.5546C1.5354 10.039 1.18384 9.44135 0.926023 8.76166C0.66821 8.10541 0.539304 7.40229 0.539304 6.65229C0.539304 5.83197 0.703366 5.05854 1.03149 4.33197C1.33618 3.62885 1.76977 2.99604 2.33227 2.43354C2.87133 1.89447 3.50415 1.46088 4.23071 1.13275C4.95727 0.828066 5.71899 0.675722 6.51587 0.675722C7.35962 0.675722 8.15649 0.828066 8.90649 1.13275C9.63305 1.46088 10.2776 1.89447 10.8401 2.43353C11.3791 2.99603 11.801 3.62885 12.1057 4.33197C12.4104 5.05853 12.5627 5.83197 12.5627 6.65228ZM26.9768 6.65228C26.9768 7.68353 26.8831 8.7851 26.6956 9.95697C26.4846 11.1523 26.1682 12.3242 25.7463 13.4726C25.301 14.6445 24.7268 15.746 24.0237 16.7773C23.3206 17.832 22.4768 18.7343 21.4924 19.4843L17.6956 16.8124C18.3518 16.0624 18.844 15.3476 19.1721 14.6679C19.4768 13.9882 19.7229 13.3085 19.9104 12.6288C19.2073 12.5117 18.551 12.2656 17.9416 11.8906C17.3323 11.539 16.8166 11.0937 16.3948 10.5546C15.9495 10.039 15.5979 9.44135 15.3401 8.76166C15.0823 8.10541 14.9534 7.40228 14.9534 6.65228C14.9534 5.83197 15.1174 5.05853 15.4456 4.33197C15.7502 3.62885 16.1838 2.99603 16.7463 2.43353C17.2854 1.89447 17.9182 1.46088 18.6448 1.13275C19.3713 0.828065 20.1331 0.675721 20.9299 0.675721C21.7737 0.675721 22.5706 0.828065 23.3206 1.13275C24.0471 1.46088 24.6799 1.89447 25.219 2.43353C25.7581 2.99603 26.1916 3.62885 26.5198 4.33197C26.8245 5.05853 26.9768 5.83197 26.9768 6.65228Z" fill="black"/>
</svg>
