<svg width="27" height="20" viewBox="0 0 27 20" fill="none" xmlns="http://www.w3.org/2000/svg">
<path d="M14.4377 13.3476C14.4377 12.3164 14.5315 11.2148 14.719 10.0429C14.9299 8.84763 15.2463 7.67575 15.6682 6.52731C16.1135 5.35544 16.676 4.25388 17.3557 3.22263C18.0588 2.16794 18.9026 1.26559 19.887 0.515594L23.719 3.18747C23.0627 3.93747 22.5706 4.65231 22.2424 5.332C21.9143 6.01169 21.6565 6.69138 21.469 7.37106C22.1721 7.48825 22.8284 7.73434 23.4377 8.10934C24.0471 8.46091 24.5745 8.90622 25.0198 9.44528C25.4651 9.96091 25.8167 10.5586 26.0745 11.2383C26.3323 11.8945 26.4612 12.5976 26.4612 13.3476C26.4612 14.1679 26.2971 14.9414 25.969 15.6679C25.6643 16.3711 25.2307 17.0039 24.6682 17.5664C24.1292 18.1054 23.4963 18.539 22.7698 18.8672C22.0432 19.1718 21.2815 19.3242 20.4846 19.3242C19.6409 19.3242 18.844 19.1718 18.094 18.8672C17.3674 18.539 16.7229 18.1054 16.1604 17.5664C15.6213 17.0039 15.1995 16.3711 14.8948 15.6679C14.5901 14.9414 14.4377 14.1679 14.4377 13.3476ZM0.0236816 13.3476C0.0236816 12.3164 0.117432 11.2148 0.304932 10.0429C0.515869 8.84763 0.832275 7.67575 1.25415 6.52731C1.69946 5.35544 2.27368 4.25388 2.97681 3.22263C3.67993 2.16794 4.52368 1.26559 5.50806 0.515594L9.30493 3.18747C8.64868 3.93747 8.15649 4.65231 7.82837 5.332C7.52368 6.01169 7.27759 6.69138 7.09009 7.37106C7.79321 7.48825 8.44946 7.73434 9.05884 8.10934C9.66821 8.46091 10.1838 8.90622 10.6057 9.44528C11.051 9.96091 11.4026 10.5586 11.6604 11.2383C11.9182 11.8945 12.0471 12.5976 12.0471 13.3476C12.0471 14.1679 11.8831 14.9414 11.5549 15.6679C11.2502 16.3711 10.8167 17.0039 10.2542 17.5664C9.71509 18.1054 9.08228 18.539 8.35571 18.8672C7.62915 19.1718 6.86743 19.3242 6.07056 19.3242C5.22681 19.3242 4.42993 19.1718 3.67993 18.8672C2.95337 18.539 2.32056 18.1054 1.78149 17.5664C1.24243 17.0039 0.808838 16.3711 0.480713 15.6679C0.176025 14.9414 0.0236816 14.1679 0.0236816 13.3476Z" fill="black"/>
</svg>
